<?xml version="1.0" encoding="UTF-8" standalone="no"?>
<!-- Created with Inkscape (http://www.inkscape.org/) -->

<svg
   version="1.1"
   id="svg5649"
   width="287"
   height="156"
   viewBox="0 0 287 156"
   sodipodi:docname="crvision.svg"
   inkscape:version="1.2.2 (732a01da63, 2022-12-09)"
   xmlns:inkscape="http://www.inkscape.org/namespaces/inkscape"
   xmlns:sodipodi="http://sodipodi.sourceforge.net/DTD/sodipodi-0.dtd"
   xmlns="http://www.w3.org/2000/svg"
   xmlns:svg="http://www.w3.org/2000/svg">
  <defs
     id="defs5653" />
  <sodipodi:namedview
     id="namedview5651"
     pagecolor="#000000"
     bordercolor="#111111"
     borderopacity="1"
     inkscape:showpageshadow="0"
     inkscape:pageopacity="0"
     inkscape:pagecheckerboard="1"
     inkscape:deskcolor="#d1d1d1"
     showgrid="false"
     inkscape:zoom="1.3512369"
     inkscape:cx="371.51147"
     inkscape:cy="113.96966"
     inkscape:window-width="1920"
     inkscape:window-height="1009"
     inkscape:window-x="-8"
     inkscape:window-y="-8"
     inkscape:window-maximized="1"
     inkscape:current-layer="g5655" />
  <g
     inkscape:groupmode="layer"
     inkscape:label="Image"
     id="g5655">
    <rect
       style="fill:none;stroke:#fffdff;stroke-width:1.38652;stroke-linecap:round;stroke-linejoin:round;stroke-dasharray:none;stroke-opacity:1;paint-order:fill markers stroke"
       id="rect6509-6"
       width="22.063299"
       height="16.305204"
       x="244.52675"
       y="31.644619"
       ry="3.4014704"
       rx="3.4014699"
       transform="matrix(0.99986781,0.01625944,-0.01562885,0.99987786,0,0)" />
    <path
       id="rect5828"
       style="fill:none;stroke:#fffdff;stroke-width:2.997;stroke-linecap:round;stroke-linejoin:round;stroke-opacity:1;paint-order:fill markers stroke"
       d="M 7.6418157,8.6246043 H 280.80616 V 149.3932 L 5.5486027,148.8699 Z"
       sodipodi:nodetypes="ccccc" />
    <path
       id="rect6506"
       style="fill:none;stroke:#fffdff;stroke-width:2.997;stroke-linecap:round;stroke-linejoin:round;stroke-opacity:1;paint-order:fill markers stroke"
       d="m 106.15367,30.341714 c -0.033,-4.22721 2.44518,-8.70269 9.28864,-8.63451 52.65676,0.5246 158.16844,2.35487 158.16844,2.35487 l 0.13082,109.370396 c 0,0 -105.20064,-2.54854 -161.11202,-2.68194 -4.13304,-0.01 -8.68922,-4.83026 -8.56909,-8.96156 0.7467,-25.678986 2.36648,-56.423746 2.09321,-91.447256 z"
       sodipodi:nodetypes="ssccsss" />
    <rect
       style="fill:none;stroke:#fffdff;stroke-width:1.38652;stroke-linecap:round;stroke-linejoin:round;stroke-dasharray:none;stroke-opacity:1;paint-order:fill markers stroke"
       id="rect6509"
       width="22.063299"
       height="16.305204"
       x="119.91505"
       y="32.689632"
       ry="3.4014704"
       rx="3.4014699"
       transform="matrix(0.99986781,0.01625944,-0.01562885,0.99987786,0,0)" />
    <rect
       style="fill:none;stroke:#fffdff;stroke-width:1.38652;stroke-linecap:round;stroke-linejoin:round;stroke-dasharray:none;stroke-opacity:1;paint-order:fill markers stroke"
       id="rect6509-4"
       width="22.063299"
       height="16.305204"
       x="145.23183"
       y="32.605099"
       ry="3.4014704"
       rx="3.4014699"
       transform="matrix(0.99986781,0.01625944,-0.01562885,0.99987786,0,0)" />
    <rect
       style="fill:none;stroke:#fffdff;stroke-width:1.38652;stroke-linecap:round;stroke-linejoin:round;stroke-dasharray:none;stroke-opacity:1;paint-order:fill markers stroke"
       id="rect6509-9"
       width="22.063299"
       height="16.305204"
       x="170.09184"
       y="32.593349"
       ry="3.4014704"
       rx="3.4014699"
       transform="matrix(0.99986781,0.01625944,-0.01562885,0.99987786,0,0)" />
    <rect
       style="fill:none;stroke:#fffdff;stroke-width:1.38652;stroke-linecap:round;stroke-linejoin:round;stroke-dasharray:none;stroke-opacity:1;paint-order:fill markers stroke"
       id="rect6509-0"
       width="22.063299"
       height="16.305204"
       x="195.20531"
       y="32.054134"
       ry="3.4014704"
       rx="3.4014699"
       transform="matrix(0.99986781,0.01625944,-0.01562885,0.99987786,0,0)" />
    <rect
       style="fill:none;stroke:#fffdff;stroke-width:1.38652;stroke-linecap:round;stroke-linejoin:round;stroke-dasharray:none;stroke-opacity:1;paint-order:fill markers stroke"
       id="rect6509-00"
       width="22.063299"
       height="16.305204"
       x="219.92838"
       y="31.652096"
       ry="3.4014704"
       rx="3.4014699"
       transform="matrix(0.99986781,0.01625944,-0.01562885,0.99987786,0,0)" />
    <rect
       style="fill:none;stroke:#fffdff;stroke-width:1.38652;stroke-linecap:round;stroke-linejoin:round;stroke-dasharray:none;stroke-opacity:1;paint-order:fill markers stroke"
       id="rect6509-6-6"
       width="22.063299"
       height="16.305204"
       x="244.80638"
       y="55.813076"
       ry="3.4014704"
       rx="3.4014699"
       transform="matrix(0.99986781,0.01625944,-0.01562885,0.99987786,0,0)" />
    <rect
       style="fill:none;stroke:#fffdff;stroke-width:1.38652;stroke-linecap:round;stroke-linejoin:round;stroke-dasharray:none;stroke-opacity:1;paint-order:fill markers stroke"
       id="rect6509-3"
       width="22.063299"
       height="16.305204"
       x="120.19469"
       y="56.858089"
       ry="3.4014704"
       rx="3.4014699"
       transform="matrix(0.99986781,0.01625944,-0.01562885,0.99987786,0,0)" />
    <rect
       style="fill:none;stroke:#fffdff;stroke-width:1.38652;stroke-linecap:round;stroke-linejoin:round;stroke-dasharray:none;stroke-opacity:1;paint-order:fill markers stroke"
       id="rect6509-4-5"
       width="22.063299"
       height="16.305204"
       x="145.51147"
       y="56.773556"
       ry="3.4014704"
       rx="3.4014699"
       transform="matrix(0.99986781,0.01625944,-0.01562885,0.99987786,0,0)" />
    <rect
       style="fill:none;stroke:#fffdff;stroke-width:1.38652;stroke-linecap:round;stroke-linejoin:round;stroke-dasharray:none;stroke-opacity:1;paint-order:fill markers stroke"
       id="rect6509-9-0"
       width="22.063299"
       height="16.305204"
       x="170.37149"
       y="56.761806"
       ry="3.4014704"
       rx="3.4014699"
       transform="matrix(0.99986781,0.01625944,-0.01562885,0.99987786,0,0)" />
    <rect
       style="fill:none;stroke:#fffdff;stroke-width:1.38652;stroke-linecap:round;stroke-linejoin:round;stroke-dasharray:none;stroke-opacity:1;paint-order:fill markers stroke"
       id="rect6509-0-6"
       width="22.063299"
       height="16.305204"
       x="195.48495"
       y="56.222591"
       ry="3.4014704"
       rx="3.4014699"
       transform="matrix(0.99986781,0.01625944,-0.01562885,0.99987786,0,0)" />
    <rect
       style="fill:none;stroke:#fffdff;stroke-width:1.38652;stroke-linecap:round;stroke-linejoin:round;stroke-dasharray:none;stroke-opacity:1;paint-order:fill markers stroke"
       id="rect6509-00-6"
       width="22.063299"
       height="16.305204"
       x="220.20802"
       y="55.820553"
       ry="3.4014704"
       rx="3.4014699"
       transform="matrix(0.99986781,0.01625944,-0.01562885,0.99987786,0,0)" />
    <rect
       style="fill:none;stroke:#fffdff;stroke-width:1.38652;stroke-linecap:round;stroke-linejoin:round;stroke-dasharray:none;stroke-opacity:1;paint-order:fill markers stroke"
       id="rect6509-6-67"
       width="22.063299"
       height="16.305204"
       x="244.64095"
       y="78.713127"
       ry="3.4014704"
       rx="3.4014699"
       transform="matrix(0.99986781,0.01625944,-0.01562885,0.99987786,0,0)" />
    <rect
       style="fill:none;stroke:#fffdff;stroke-width:1.38652;stroke-linecap:round;stroke-linejoin:round;stroke-dasharray:none;stroke-opacity:1;paint-order:fill markers stroke"
       id="rect6509-66"
       width="22.063299"
       height="16.305204"
       x="120.02926"
       y="79.758141"
       ry="3.4014704"
       rx="3.4014699"
       transform="matrix(0.99986781,0.01625944,-0.01562885,0.99987786,0,0)" />
    <rect
       style="fill:none;stroke:#fffdff;stroke-width:1.38652;stroke-linecap:round;stroke-linejoin:round;stroke-dasharray:none;stroke-opacity:1;paint-order:fill markers stroke"
       id="rect6509-4-4"
       width="22.063299"
       height="16.305204"
       x="145.34604"
       y="79.673607"
       ry="3.4014704"
       rx="3.4014699"
       transform="matrix(0.99986781,0.01625944,-0.01562885,0.99987786,0,0)" />
    <rect
       style="fill:none;stroke:#fffdff;stroke-width:1.38652;stroke-linecap:round;stroke-linejoin:round;stroke-dasharray:none;stroke-opacity:1;paint-order:fill markers stroke"
       id="rect6509-9-8"
       width="22.063299"
       height="16.305204"
       x="170.20605"
       y="79.661858"
       ry="3.4014704"
       rx="3.4014699"
       transform="matrix(0.99986781,0.01625944,-0.01562885,0.99987786,0,0)" />
    <rect
       style="fill:none;stroke:#fffdff;stroke-width:1.38652;stroke-linecap:round;stroke-linejoin:round;stroke-dasharray:none;stroke-opacity:1;paint-order:fill markers stroke"
       id="rect6509-0-4"
       width="22.063299"
       height="16.305204"
       x="195.31952"
       y="79.122643"
       ry="3.4014704"
       rx="3.4014699"
       transform="matrix(0.99986781,0.01625944,-0.01562885,0.99987786,0,0)" />
    <rect
       style="fill:none;stroke:#fffdff;stroke-width:1.38652;stroke-linecap:round;stroke-linejoin:round;stroke-dasharray:none;stroke-opacity:1;paint-order:fill markers stroke"
       id="rect6509-00-7"
       width="22.063299"
       height="16.305204"
       x="220.04259"
       y="78.720604"
       ry="3.4014704"
       rx="3.4014699"
       transform="matrix(0.99986781,0.01625944,-0.01562885,0.99987786,0,0)" />
    <rect
       style="fill:none;stroke:#fffdff;stroke-width:1.38652;stroke-linecap:round;stroke-linejoin:round;stroke-dasharray:none;stroke-opacity:1;paint-order:fill markers stroke"
       id="rect6509-6-5"
       width="22.063299"
       height="16.305204"
       x="244.61656"
       y="102.26504"
       ry="3.4014704"
       rx="3.4014699"
       transform="matrix(0.99986781,0.01625944,-0.01562885,0.99987786,0,0)" />
    <rect
       style="fill:none;stroke:#fffdff;stroke-width:1.38652;stroke-linecap:round;stroke-linejoin:round;stroke-dasharray:none;stroke-opacity:1;paint-order:fill markers stroke"
       id="rect6509-93"
       width="22.063299"
       height="16.305204"
       x="120.00488"
       y="103.31005"
       ry="3.4014704"
       rx="3.4014699"
       transform="matrix(0.99986781,0.01625944,-0.01562885,0.99987786,0,0)" />
    <rect
       style="fill:none;stroke:#fffdff;stroke-width:1.38652;stroke-linecap:round;stroke-linejoin:round;stroke-dasharray:none;stroke-opacity:1;paint-order:fill markers stroke"
       id="rect6509-4-7"
       width="22.063299"
       height="16.305204"
       x="145.32166"
       y="103.22552"
       ry="3.4014704"
       rx="3.4014699"
       transform="matrix(0.99986781,0.01625944,-0.01562885,0.99987786,0,0)" />
    <rect
       style="fill:none;stroke:#fffdff;stroke-width:1.38652;stroke-linecap:round;stroke-linejoin:round;stroke-dasharray:none;stroke-opacity:1;paint-order:fill markers stroke"
       id="rect6509-9-9"
       width="22.063299"
       height="16.305204"
       x="170.18167"
       y="103.21377"
       ry="3.4014704"
       rx="3.4014699"
       transform="matrix(0.99986781,0.01625944,-0.01562885,0.99987786,0,0)" />
    <rect
       style="fill:none;stroke:#fffdff;stroke-width:1.38652;stroke-linecap:round;stroke-linejoin:round;stroke-dasharray:none;stroke-opacity:1;paint-order:fill markers stroke"
       id="rect6509-0-8"
       width="22.063299"
       height="16.305204"
       x="195.29514"
       y="102.67455"
       ry="3.4014704"
       rx="3.4014699"
       transform="matrix(0.99986781,0.01625944,-0.01562885,0.99987786,0,0)" />
    <rect
       style="fill:none;stroke:#fffdff;stroke-width:1.38652;stroke-linecap:round;stroke-linejoin:round;stroke-dasharray:none;stroke-opacity:1;paint-order:fill markers stroke"
       id="rect6509-00-3"
       width="22.063299"
       height="16.305204"
       x="220.0182"
       y="102.27251"
       ry="3.4014704"
       rx="3.4014699"
       transform="matrix(0.99986781,0.01625944,-0.01562885,0.99987786,0,0)" />
    <ellipse
       style="fill:none;stroke:#fffdff;stroke-width:1.597;stroke-linecap:round;stroke-linejoin:round;stroke-dasharray:none;stroke-opacity:1;paint-order:fill markers stroke"
       id="path6798"
       cx="62.71949"
       cy="78.485619"
       rx="35.715454"
       ry="34.538021" />
    <ellipse
       style="fill:none;stroke:#fffdff;stroke-width:1.597;stroke-linecap:round;stroke-linejoin:round;stroke-dasharray:none;stroke-opacity:1;paint-order:fill markers stroke"
       id="path6800"
       cx="62.45784"
       cy="79.008904"
       rx="21.847916"
       ry="21.455437" />
    <rect
       style="fill:none;stroke:#fffdff;stroke-width:1.597;stroke-linecap:round;stroke-linejoin:round;stroke-dasharray:none;stroke-opacity:1;paint-order:fill markers stroke"
       id="rect6802"
       width="5.4946852"
       height="37.154537"
       x="274.52652"
       y="60.170002" />
  </g>
</svg>
