<?xml version="1.0" encoding="UTF-8" standalone="no"?>
<!-- Generator: Adobe Illustrator 18.0.0, SVG Export Plug-In . SVG Version: 6.00 Build 0)  -->

<svg
   version="1.1"
   id="Capa_1"
   x="0px"
   y="0px"
   viewBox="0 0 58.779 31"
   xml:space="preserve"
   sodipodi:docname="fpinball.svg"
   width="58.778999"
   height="31"
   inkscape:version="1.2.2 (732a01da63, 2022-12-09)"
   xmlns:inkscape="http://www.inkscape.org/namespaces/inkscape"
   xmlns:sodipodi="http://sodipodi.sourceforge.net/DTD/sodipodi-0.dtd"
   xmlns="http://www.w3.org/2000/svg"
   xmlns:svg="http://www.w3.org/2000/svg"><defs
   id="defs49" /><sodipodi:namedview
   id="namedview47"
   pagecolor="#ffffff"
   bordercolor="#111111"
   borderopacity="1"
   inkscape:showpageshadow="0"
   inkscape:pageopacity="0"
   inkscape:pagecheckerboard="1"
   inkscape:deskcolor="#d1d1d1"
   showgrid="false"
   inkscape:zoom="10.285583"
   inkscape:cx="26.007275"
   inkscape:cy="31.014284"
   inkscape:window-width="1920"
   inkscape:window-height="1009"
   inkscape:window-x="-8"
   inkscape:window-y="-8"
   inkscape:window-maximized="1"
   inkscape:current-layer="Capa_1" />
<g
   id="g14"
   style="fill:#f1ffff;fill-opacity:1;stroke:none;stroke-opacity:1"
   transform="translate(0.02847609,-14.07653)">
	<path
   d="m 58.425,27.888 v 0 c -0.599,-1.699 -1.903,-3.055 -3.577,-3.72 -1.674,-0.663 -3.551,-0.571 -5.152,0.253 l -18.911,9.747 c -1.455,0.75 -2.141,2.48 -1.598,4.023 0.47,1.334 1.742,2.199 3.114,2.199 0.216,0 0.436,-0.021 0.654,-0.066 L 53.798,36.06 c 1.765,-0.36 3.285,-1.467 4.172,-3.034 0.888,-1.566 1.053,-3.44 0.455,-5.138 z m -2.194,4.154 c -0.603,1.063 -1.635,1.814 -2.833,2.06 l -20.843,4.264 c -0.63,0.127 -1.267,-0.231 -1.48,-0.838 -0.214,-0.607 0.056,-1.287 0.627,-1.582 l 18.911,-9.747 c 0.606,-0.313 1.271,-0.47 1.937,-0.47 0.529,0 1.058,0.1 1.561,0.299 1.137,0.451 2.022,1.371 2.429,2.525 0.405,1.153 0.293,2.425 -0.309,3.489 z"
   id="path2"
   style="fill:#f1ffff;fill-opacity:1;stroke:none;stroke-opacity:1" />
	<path
   d="M 11.194,22.149 C 10.107,20.713 8.453,19.82 6.656,19.696 4.858,19.578 3.098,20.232 1.824,21.506 0.55,22.78 -0.11,24.541 0.014,26.338 c 0.124,1.797 1.018,3.451 2.453,4.538 l 16.958,12.847 c 0.588,0.446 1.289,0.665 1.987,0.665 0.851,0 1.697,-0.325 2.333,-0.961 1.158,-1.157 1.285,-3.015 0.296,-4.319 z M 22.33,42.013 c -0.454,0.456 -1.183,0.505 -1.697,0.116 L 3.675,29.282 C 2.7,28.544 2.093,27.421 2.009,26.201 1.926,24.98 2.373,23.785 3.238,22.92 c 0.865,-0.865 2.06,-1.316 3.281,-1.229 1.22,0.084 2.343,0.691 3.081,1.665 l 12.846,16.958 c 0.389,0.514 0.34,1.244 -0.116,1.699 z"
   id="path4"
   style="fill:#f1ffff;fill-opacity:1;stroke:none;stroke-opacity:1" />
	<path
   d="m 41,21.892 c 0,-4.136 -3.364,-7.5 -7.5,-7.5 -4.136,0 -7.5,3.364 -7.5,7.5 0,4.136 3.364,7.5 7.5,7.5 4.136,0 7.5,-3.365 7.5,-7.5 z m -13,0 c 0,-3.032 2.467,-5.5 5.5,-5.5 3.033,0 5.5,2.468 5.5,5.5 0,3.032 -2.467,5.5 -5.5,5.5 -3.033,0 -5.5,-2.468 -5.5,-5.5 z"
   id="path6"
   style="fill:#f1ffff;fill-opacity:1;stroke:none;stroke-opacity:1" />
	<circle
   cx="6.5"
   cy="25.892"
   r="2.5"
   id="circle8"
   style="fill:#f1ffff;fill-opacity:1;stroke:none;stroke-opacity:1" />
	<circle
   cx="52.576"
   cy="29.948999"
   r="2.5"
   id="circle10"
   style="fill:#f1ffff;fill-opacity:1;stroke:none;stroke-opacity:1" />
	<path
   d="m 35,19.392 c 0,-0.553 -0.448,-1 -1,-1 -2.206,0 -4,1.794 -4,4 0,0.553 0.448,1 1,1 0.552,0 1,-0.447 1,-1 0,-1.103 0.897,-2 2,-2 0.552,0 1,-0.448 1,-1 z"
   id="path12"
   style="fill:#f1ffff;fill-opacity:1;stroke:none;stroke-opacity:1" />
</g>
<g
   id="g16"
   style="fill:#f1ffff;fill-opacity:1;stroke:none;stroke-opacity:1"
   transform="translate(0.02847609,-14.07653)">
</g>
<g
   id="g18"
   style="fill:#f1ffff;fill-opacity:1;stroke:none;stroke-opacity:1"
   transform="translate(0.02847609,-14.07653)">
</g>
<g
   id="g20"
   style="fill:#f1ffff;fill-opacity:1;stroke:none;stroke-opacity:1"
   transform="translate(0.02847609,-14.07653)">
</g>
<g
   id="g22"
   style="fill:#f1ffff;fill-opacity:1;stroke:none;stroke-opacity:1"
   transform="translate(0.02847609,-14.07653)">
</g>
<g
   id="g24"
   style="fill:#f1ffff;fill-opacity:1;stroke:none;stroke-opacity:1"
   transform="translate(0.02847609,-14.07653)">
</g>
<g
   id="g26"
   style="fill:#f1ffff;fill-opacity:1;stroke:none;stroke-opacity:1"
   transform="translate(0.02847609,-14.07653)">
</g>
<g
   id="g28"
   style="fill:#f1ffff;fill-opacity:1;stroke:none;stroke-opacity:1"
   transform="translate(0.02847609,-14.07653)">
</g>
<g
   id="g30"
   style="fill:#f1ffff;fill-opacity:1;stroke:none;stroke-opacity:1"
   transform="translate(0.02847609,-14.07653)">
</g>
<g
   id="g32"
   style="fill:#f1ffff;fill-opacity:1;stroke:none;stroke-opacity:1"
   transform="translate(0.02847609,-14.07653)">
</g>
<g
   id="g34"
   style="fill:#f1ffff;fill-opacity:1;stroke:none;stroke-opacity:1"
   transform="translate(0.02847609,-14.07653)">
</g>
<g
   id="g36"
   style="fill:#f1ffff;fill-opacity:1;stroke:none;stroke-opacity:1"
   transform="translate(0.02847609,-14.07653)">
</g>
<g
   id="g38"
   style="fill:#f1ffff;fill-opacity:1;stroke:none;stroke-opacity:1"
   transform="translate(0.02847609,-14.07653)">
</g>
<g
   id="g40"
   style="fill:#f1ffff;fill-opacity:1;stroke:none;stroke-opacity:1"
   transform="translate(0.02847609,-14.07653)">
</g>
<g
   id="g42"
   style="fill:#f1ffff;fill-opacity:1;stroke:none;stroke-opacity:1"
   transform="translate(0.02847609,-14.07653)">
</g>
<g
   id="g44"
   style="fill:#f1ffff;fill-opacity:1;stroke:none;stroke-opacity:1"
   transform="translate(0.02847609,-14.07653)">
</g>
</svg>
