<?xml version="1.0" encoding="UTF-8" standalone="no"?>
<!-- Created with Inkscape (http://www.inkscape.org/) -->

<svg
   width="156.5mm"
   height="156.5mm"
   viewBox="0 0 156.5 156.5"
   version="1.1"
   id="svg8"
   inkscape:version="1.2.2 (732a01da63, 2022-12-09)"
   sodipodi:docname="lutris.svg"
   xmlns:inkscape="http://www.inkscape.org/namespaces/inkscape"
   xmlns:sodipodi="http://sodipodi.sourceforge.net/DTD/sodipodi-0.dtd"
   xmlns="http://www.w3.org/2000/svg"
   xmlns:svg="http://www.w3.org/2000/svg"
   xmlns:rdf="http://www.w3.org/1999/02/22-rdf-syntax-ns#"
   xmlns:cc="http://creativecommons.org/ns#"
   xmlns:dc="http://purl.org/dc/elements/1.1/">
  <defs
     id="defs2">
    <filter
       inkscape:menu-tooltip="Light areas turn to black"
       inkscape:menu="Color"
       id="filter251"
       inkscape:label="Black Light"
       style="color-interpolation-filters:sRGB">
      <feGaussianBlur
         id="feGaussianBlur245"
         result="blur"
         stdDeviation="1.51" />
      <feComposite
         id="feComposite247"
         result="composite1"
         operator="in"
         in2="blur"
         in="SourceGraphic" />
      <feComposite
         id="feComposite249"
         result="fbSourceGraphic"
         operator="in"
         in2="composite1"
         in="composite1" />
      <feColorMatrix
         id="feColorMatrix257"
         values="0 0 0 -1 0 0 0 0 -1 0 0 0 0 -1 0 0 0 0 1 0"
         in="fbSourceGraphic"
         result="fbSourceGraphicAlpha" />
      <feColorMatrix
         in="fbSourceGraphic"
         result="result2"
         type="luminanceToAlpha"
         id="feColorMatrix259" />
      <feComposite
         result="result4"
         k3="2"
         in="result2"
         operator="arithmetic"
         id="feComposite261"
         in2="fbSourceGraphic"
         k1="0"
         k2="0"
         k4="0" />
      <feBlend
         result="result3"
         mode="multiply"
         in="result4"
         id="feBlend263"
         in2="result2" />
      <feComposite
         in="result3"
         operator="in"
         id="feComposite265"
         in2="fbSourceGraphic" />
    </filter>
    <filter
       id="filter339"
       style="color-interpolation-filters:sRGB"
       inkscape:menu-tooltip="Light areas turn to black"
       inkscape:menu="Color"
       inkscape:label="Black Light">
      <feColorMatrix
         id="feColorMatrix331"
         result="result2"
         type="luminanceToAlpha" />
      <feComposite
         id="feComposite333"
         result="result4"
         k3="2"
         in="result2"
         operator="arithmetic"
         in2="SourceGraphic"
         k1="0"
         k2="0"
         k4="0" />
      <feBlend
         id="feBlend335"
         in2="result2"
         result="result3"
         mode="multiply"
         in="result4" />
      <feComposite
         id="feComposite337"
         in="result3"
         operator="in"
         in2="SourceGraphic" />
    </filter>
  </defs>
  <sodipodi:namedview
     id="base"
     pagecolor="#ffffff"
     bordercolor="#666666"
     borderopacity="1.0"
     inkscape:pageopacity="0.0"
     inkscape:pageshadow="2"
     inkscape:zoom="0.25"
     inkscape:cx="170"
     inkscape:cy="900"
     inkscape:document-units="mm"
     inkscape:current-layer="layer1"
     showgrid="false"
     inkscape:window-width="1920"
     inkscape:window-height="1009"
     inkscape:window-x="-8"
     inkscape:window-y="-8"
     inkscape:window-maximized="1"
     inkscape:showpageshadow="0"
     inkscape:pagecheckerboard="1"
     inkscape:deskcolor="#d1d1d1" />
  <metadata
     id="metadata5">
    <rdf:RDF>
      <cc:Work
         rdf:about="">
        <dc:format>image/svg+xml</dc:format>
        <dc:type
           rdf:resource="http://purl.org/dc/dcmitype/StillImage" />
      </cc:Work>
    </rdf:RDF>
  </metadata>
  <g
     inkscape:label="Layer 1"
     inkscape:groupmode="layer"
     id="layer1"
     transform="translate(0,-140.49999)">
    <g
       id="layer1-4"
       inkscape:label="Layer 1"
       transform="matrix(0.99970438,0,0,1.0001423,-47.683914,134.83374)"
       style="stroke:none;fill:#ffffff;fill-opacity:1">
      <g
         inkscape:export-ydpi="332.35999"
         inkscape:export-xdpi="332.35999"
         transform="matrix(1,0,0,1.0016489,0,-0.00933565)"
         id="g41"
         style="stroke:none;fill:#ffffff;fill-opacity:1">
        <g
           id="g461"
           inkscape:export-xdpi="332.35999"
           inkscape:export-ydpi="332.35999"
           style="stroke:none;fill:#ffffff;fill-opacity:1">
          <g
             transform="matrix(0.99984158,0,0,1,0.03235708,0)"
             id="g450"
             style="stroke:none;fill:#ffffff;fill-opacity:1">
            <path
               inkscape:connector-curvature="0"
               id="path178"
               d="m 86.140882,72.142912 c 0.406609,-0.02598 6.718865,0.348323 7.546764,1.638422 1.007368,1.569767 -3.634504,3.565384 -5.347218,18.967749 -0.778412,7.000272 -0.300918,12.732437 2.667996,17.329007 0.719538,1.11399 11.098986,12.23276 9.995416,10.42261 -9.477234,-15.54516 -6.08541,-28.059987 -5.83415,-30.478586 0.416658,-4.010647 3.505038,-13.391012 4.96465,-12.427985 2.96816,1.958337 4.04151,6.514593 10.52201,9.330241 3.77264,1.639133 10.56051,0.173291 12.14728,-5.966654 2.92593,-11.321813 -4.06074,-16.151095 -7.19542,-20.03882 3.59656,-2.021623 10.47425,-4.671187 15.41969,-4.939285 10.02625,-0.689537 9.74528,0.110298 17.75439,1.463145 3.08566,0.38901 -17.34489,-7.441589 -17.70375,-7.552892 -7.92526,0.648236 -13.72098,3.709188 -14.72624,4.068001 -4.24391,1.935223 -5.52364,2.831949 -8.09051,2.773785 -1.38471,-0.03137 -4.07545,-1.462361 -4.84629,-2.996612 -1.21213,-2.412619 -4.86737,3.495406 -4.709006,4.29404 0.220597,1.113033 3.751296,3.606684 5.136406,4.026554 1.1532,0.349597 5.66637,1.419222 9.30254,5.801255 5.13954,6.193796 4.90718,11.814382 2.23558,12.705495 -2.5316,0.84442 -4.48491,-0.08505 -5.87695,-2.006377 -1.21821,-1.681462 -2.63142,-3.155785 -3.98057,-4.334482 -0.81726,-0.713999 -2.31286,-2.070228 -3.50335,-3.019309 -0.93878,-0.748436 -3.290199,-2.192218 -4.300851,-2.664908 -1.939757,-0.907217 -4.512578,-2.004171 -5.695614,-1.94461"
               style="fill:#ffffff;stroke-width:0.64851379;stroke:none;fill-opacity:1"
               sodipodi:nodetypes="ccccccccccccccssssssssssc" />
            <path
               inkscape:connector-curvature="0"
               id="path176-7-1"
               d="m 80.386001,68.574538 c -1.139579,1.059968 -2.364088,3.34741 -4.009372,9.03567 -1.040286,3.596513 -1.766687,8.384249 -2.011892,11.86686 -0.345823,4.501768 0.03971,9.078099 0.351508,11.369222 0.503451,3.69899 0.774688,5.08073 1.512143,7.68324 1.036388,3.65747 2.633362,6.43549 5.557545,10.7849 0.402589,0.5988 0.82361,5.25288 7.651009,9.00158 6.827373,3.7487 19.444898,11.63628 18.850858,11.19975 -4.54743,-3.3418 -7.0666,-3.76253 -14.411127,-11.42704 -4.112929,-4.29213 -7.903053,-10.84653 -8.955986,-13.27647 -5.189834,-11.97701 -4.662878,-20.943148 -3.825811,-29.821411 1.627294,-9.664445 3.218753,-11.337917 3.437904,-11.624619 0.52203,-0.682919 1.106514,-1.060238 1.864901,-1.222156 2.318179,-0.212263 2.255186,0.0049 3.411334,-0.571321 0.991583,-0.493916 3.016416,-4.260191 3.418368,-4.80808 -2.320825,-0.616543 -3.003867,-0.65152 -6.479786,-0.545879 -1.837842,0.05589 -3.178458,0.432958 -3.538325,0.540977 -0.769686,0.231137 -1.836517,0.658359 -2.823271,1.814409 z"
               style="fill:#ffffff;stroke-width:0.51768273;stroke:none;fill-opacity:1"
               sodipodi:nodetypes="cscssssssscscscsssc" />
            <path
               inkscape:connector-curvature="0"
               id="path176"
               d="m 171.99148,66.340872 c -10.47533,-4.671628 -16.96186,-6.666509 -28.08119,-10.173631 -1.16255,-0.366681 -8.72566,-3.554551 -10.37928,-4.071532 -1.65359,-0.517005 -4.11301,-0.857219 -7.52217,-1.378116 -0.95085,-0.145284 6.68406,-1.207441 10.38898,-1.288899 3.91057,-0.08598 14.25491,1.735533 27.89196,7.208982 4.10119,1.646069 9.82203,9.167759 11.00556,10.342731 1.18352,1.174972 0.34994,0.989941 -3.30386,-0.639535 z"
               style="fill:#ffffff;stroke-width:0.64851379;stroke:none;fill-opacity:1"
               sodipodi:nodetypes="ssssssss" />
            <path
               inkscape:connector-curvature="0"
               id="path176-57"
               d="m 103.71926,51.848813 c -0.96687,2.305212 1.65622,3.205173 0.42036,4.721139 -1.62455,1.136246 -2.79516,2.095376 -4.12354,2.349969 -2.096602,0.16937 -3.402388,-6.028372 -2.402717,-8.956966 0.535585,-1.569007 1.83968,-6.68053 9.386127,-10.164686 3.12549,-1.443021 25.75076,-4.052094 22.96859,-2.851998 -1.22279,0.527447 -7.18633,2.224768 -14.04842,5.217899 -5.82093,2.538972 -10.66002,5.376239 -12.2004,9.684643 z"
               style="fill:#ffffff;stroke-width:0.64851379;stroke:none;fill-opacity:1"
               sodipodi:nodetypes="cccssssc" />
            <path
               inkscape:connector-curvature="0"
               id="path174"
               d="M 118.62161,161.49664 C 76.142527,157.69178 44.274937,119.68962 47.962556,77.235586 51.284254,38.994071 80.957077,9.2367649 119.06819,5.9275134 129.09018,5.0572907 141.71837,6.394436 147.086,8.8941976 c 3.49345,1.6269264 6.88373,1.8232814 10.12277,0.5862802 3.2656,-1.2471418 6.38106,-0.6771367 8.38168,1.5335082 0.86037,0.950699 2.13079,1.213748 6.22107,1.288089 6.81044,0.12378 12.40757,1.926963 18.37935,5.921138 7.93386,5.306481 11.44052,10.279592 11.44052,16.224799 0,2.346268 0.38268,3.814756 1.29703,4.977155 1.67269,2.126455 1.66521,5.725983 -0.0171,8.48609 l -1.30976,2.148246 1.31218,1.668177 c 1.65629,2.105622 1.69879,6.094184 0.10221,9.599664 -1.09999,2.41529 -4.96308,6.492924 -7.49218,7.908273 -1.02362,0.572841 -1.00376,1.069773 0.29462,7.377714 3.38763,16.457921 0.83619,34.447299 -6.87546,48.476959 -3.77353,6.86505 -10.42931,16.00305 -13.98371,19.19877 -6.89453,6.19877 -20.10811,12.80407 -30.59747,15.2953 -8.88972,2.05657 -17.60222,2.64161 -25.73972,1.91228 z m 18.1584,-7.7867 c 9.08974,-1.44332 21.16411,-6.1012 27.65909,-10.66998 2.46196,-1.7318 2.46966,-1.75026 0.55125,-1.32157 -1.07004,0.23923 -4.79239,1.73451 -8.27189,3.3231 -8.89079,4.05918 -15.89702,5.62865 -25.12657,5.62865 -24.1341,0 -44.705538,-14.04207 -53.519411,-36.53236 -1.784702,-4.554 -1.771006,-5.2888 -1.902884,-5.79949 -0.271952,-1.0531 0.684735,-0.38277 1.478712,1.31716 3.663875,7.84445 6.567026,11.55227 9.39587,14.46672 4.602704,4.74199 14.227173,11.50324 21.735843,15.29358 4.26068,2.1508 12.88124,4.89716 13.38124,4.40219 0.0713,-0.10099 -0.29945,-0.20222 -0.50649,-0.28575 -1.06181,-0.42835 -10.22413,-4.45976 -10.22413,-5.00167 0,-0.21324 0.35734,-0.24545 0.72405,-0.0196 0.36671,0.22673 1.60697,0.52632 2.75619,0.66599 1.14921,0.13971 3.25679,0.40531 4.68351,0.59029 1.42672,0.18506 9.30617,0.0645 17.50987,-0.26812 12.16126,-0.49287 16.21787,-0.90744 21.96628,-2.24499 16.02224,-3.72804 23.5201,-11.18787 28.73185,-28.58607 1.61396,-5.3879 1.74713,-6.70911 1.73201,-17.185594 -0.0123,-9.238767 -0.247,-12.132802 -1.2565,-15.564332 l -1.24012,-4.215361 -4.53856,-1.451894 c -10.44627,-3.341773 -12.39833,-4.488999 -15.53801,-9.131484 -1.59053,-2.351856 -2.78638,-4.381592 -2.65745,-4.510519 0.12892,-0.128926 3.98405,1.366573 8.56692,3.323341 4.5829,1.956743 10.44235,4.175922 13.021,4.931466 4.44285,1.301791 4.79957,1.317307 6.80938,0.296409 3.87822,-1.96993 3.94945,-2.242857 0.9772,-3.743479 -3.5607,-1.797742 -5.4958,-5.400431 -4.55214,-8.47511 0.6299,-2.052384 0.58914,-2.109224 -2.77763,-3.87194 -2.89771,-1.517142 -3.63691,-1.671266 -4.86468,-1.014182 -2.30369,1.232916 -7.61765,0.968641 -9.55123,-0.474969 -3.00514,-2.24369 -4.10251,-4.310389 -4.22881,-7.964428 -0.11766,-3.405451 -0.15467,-3.465233 -2.71342,-4.38473 -1.48072,-0.532128 -6.27546,-1.086096 -11.17186,-1.290785 -9.20584,-0.384795 -15.14443,0.412124 -22.29765,2.619636 -2.26838,0.700027 -6.24863,1.614401 -8.79549,1.734675 -5.19168,0.245206 -8.71426,0.36749 -11.6444,0.94918 -3.26947,0.649069 -5.93666,1.527363 -4.19338,0.49345 11.6318,-5.756744 18.50862,-8.03046 25.2791,-9.828128 11.15301,-2.961267 26.65398,-2.9684 35.64622,-0.01716 3.08639,1.013225 4.51103,1.166565 6.5602,0.706155 3.81383,-0.856921 7.11408,0.106131 9.58631,2.797658 2.06341,2.246386 2.44625,3.651073 2.15886,7.921142 -0.10025,1.489494 0.26361,2.321585 1.34706,3.080438 2.08599,1.461111 2.49282,1.313581 2.49282,-0.903957 0,-1.310443 0.73949,-2.762166 2.26979,-4.456056 1.49344,-1.653054 2.26982,-3.154926 2.26982,-4.39093 0,-3.9604 -5.61394,-9.447207 -13.23679,-12.937073 -2.79359,-1.278947 -5.24699,-1.784702 -10.46389,-2.157045 -5.42641,-0.387319 -7.19462,-0.767285 -8.6796,-1.865171 -1.55518,-1.149799 -2.22467,-1.275589 -4.03131,-0.757456 -3.96993,1.13855 -8.48643,0.699243 -14.52125,-1.412457 -5.08741,-1.780143 -6.90378,-2.073144 -14.56706,-2.349822 -5.10611,-0.184321 -10.78207,-0.0049 -13.61879,0.433449 -34.828813,5.367121 -60.331816,34.978274 -60.306889,70.021405 0.0098,14.86227 3.768309,27.167018 12.185205,39.900648 10.100958,15.28133 28.48263,27.1077 46.824644,30.12596 5.00453,0.82353 17.67696,0.8567 22.69799,0.0593 z m 62.90584,-97.179278 c 0,-1.217327 -4.00367,-5.255279 -5.21067,-5.255279 -0.34428,0 -0.62596,1.152815 -0.62596,2.561816 0,2.840233 1.06987,3.870616 4.05322,3.903583 1.32552,0.01471 1.78341,-0.296016 1.78341,-1.21012 z m -0.67133,-11.049279 c 1.09041,-2.037432 0.77797,-3.233729 -0.95837,-3.66953 -3.1513,-0.790913 -5.05468,3.067252 -2.09925,4.255215 2.10217,0.844959 2.31365,0.804443 3.05762,-0.585685 z m -18.78409,-2.636696 c 2.8069,-2.806874 0.73385,-7.782166 -3.24255,-7.782166 -2.49633,0 -4.53962,2.043291 -4.53962,4.539613 0,2.496299 2.04329,4.539589 4.53962,4.539589 1.08085,0 2.52198,-0.576444 3.24255,-1.297036 z"
               style="fill:#ffffff;stroke-width:0.64851379;stroke:none;fill-opacity:1"
               sodipodi:nodetypes="csscssscsccccccccscccccccsssssccsscccccccccscscccccccccccscscccccscscscccsccccccccssscscccccsssc" />
            <path
               inkscape:export-ydpi="332.35999"
               inkscape:export-xdpi="332.35999"
               inkscape:connector-curvature="0"
               id="path172"
               d="M 118.62161,161.58314 C 76.142527,157.77618 44.274937,119.7529 47.962556,77.275318 51.284254,39.012577 80.957077,9.2387502 119.06819,5.9276604 c 10.02199,-0.8707055 22.65018,0.4671824 28.01781,2.9683314 3.49345,1.6278282 6.88373,1.8242822 10.12277,0.5866062 3.2656,-1.2478354 6.38106,-0.6775142 8.38168,1.534354 0.86037,0.951213 2.13079,1.214434 6.22107,1.2888 6.81044,0.123779 12.40757,1.928041 18.37935,5.924422 7.93386,5.309423 11.44052,10.285303 11.44052,16.233819 0,2.347567 0.38268,3.816864 1.29703,4.979924 1.67269,2.127632 1.66521,5.729145 -0.0171,8.490797 l -1.30976,2.149446 1.31218,1.669085 c 1.65629,2.106798 1.69879,6.097591 0.10221,9.604982 -1.09999,2.416638 -4.96308,6.496552 -7.49218,7.912661 -1.02362,0.573185 -1.00376,1.070385 0.29462,7.381808 3.38763,16.467063 0.83619,34.466444 -6.87546,48.503904 -3.77353,6.86882 -10.44685,15.96515 -14.00125,19.16263 -6.89453,6.2022 -20.09057,12.85795 -30.57993,15.35055 -8.89026,2.05768 -17.60173,2.64313 -25.73972,1.91336 z m 45.79055,-18.51203 c 3.36816,-2.43787 1.34511,-1.47115 -0.10698,-1.07579 -1.61168,0.58664 -2.3191,0.81252 -2.6464,0.92032 0.12256,-0.44686 5.20243,-4.91354 7.20827,-6.85051 1.79137,-1.73688 4.26524,-4.27749 5.74517,-5.29883 4.55515,-3.42467 9.16372,-9.82406 12.34129,-19.34335 2.81614,-8.86853 2.46564,-11.773451 2.46564,-19.99132 0,-8.383243 -0.28293,-13.502929 -2.69996,-20.650683 -1.0244,-3.029333 -1.76554,-5.604949 -1.647,-5.723556 0.11863,-0.118632 1.40753,0.105396 2.86442,0.49801 2.18475,0.58865 3.0201,0.525069 4.76717,-0.362882 3.87528,-1.969489 3.94646,-2.242882 0.97455,-3.74419 -3.5607,-1.798722 -5.4958,-5.403422 -4.55214,-8.479791 0.62991,-2.053561 0.58914,-2.110401 -2.77763,-3.874098 -2.78481,-1.458855 -3.66561,-1.656829 -4.76131,-1.07009 -0.73942,0.395947 -2.3734,0.758608 -3.6311,0.805914 -2.02072,0.07598 -2.7377,-0.397957 -6.16423,-4.074988 -3.09819,-3.324664 -4.13442,-4.621168 -4.13667,-6.318955 -0.0599,-2.363114 -0.62357,-2.918268 -6.34274,-4.079538 -1.74803,-0.332195 -3.71044,-0.897535 -4.17898,-1.286619 -0.46853,-0.389059 -2.83212,-1.680433 -5.25244,-2.869671 l -4.79741,-2.459995 5.32184,-0.0816 c 4.82036,-0.03579 9.65166,0.572103 13.21028,1.587706 4.80943,1.372603 5.19426,1.508498 11.44152,1.267876 5.61149,-0.215939 9.20195,3.463763 9.14886,9.376665 -0.027,2.98943 0.21055,3.794363 1.35552,4.596845 1.98498,1.391109 2.39651,1.224166 2.39651,-0.971974 0,-1.311178 0.73949,-2.763735 2.2698,-4.458531 1.49344,-1.653986 2.26981,-3.156716 2.26981,-4.393382 0,-3.962581 -5.61394,-9.452452 -13.23679,-12.944255 -2.79358,-1.279633 -5.24699,-1.785682 -10.46388,-2.158221 -5.42642,-0.38754 -7.19462,-0.767726 -8.67961,-1.866249 -1.55518,-1.150437 -2.22467,-1.2763 -4.03131,-0.757848 -3.96993,1.139186 -8.48643,0.699635 -14.52125,-1.413242 -5.0874,-1.781147 -6.90377,-2.074321 -14.56706,-2.351145 -9.81609,-0.354573 -15.72699,0.348028 -23.97893,2.850258 -25.126048,7.618973 -44.3575,29.472816 -48.882823,55.326765 -3.860322,22.054683 2.85696,44.768304 18.078877,60.833224 9.703515,10.24089 20.952101,17.05222 34.144696,20.16662 7.0247,1.65834 7.93282,1.9667 19.34114,1.79257 6.34652,0.24538 13.05279,-0.95242 19.43159,-3.01999 6.3788,-2.06756 12.43013,-5.00489 17.27969,-8.05148 z m 35.27369,-86.512237 c 0,-1.217988 -4.00367,-5.25817 -5.21067,-5.25817 -0.34428,0 -0.62596,1.153452 -0.62596,2.563237 0,2.841802 1.10052,3.84644 4.05907,3.879431 1.32552,0.01471 1.77756,-0.269854 1.77756,-1.184498 z m -0.67133,-11.055381 c 1.09041,-2.03856 0.77797,-3.235518 -0.95837,-3.671565 -3.1513,-0.791354 -5.05468,3.068943 -2.09925,4.257568 2.10217,0.845425 2.31365,0.804884 3.05762,-0.586003 z m -18.78409,-2.638167 c 2.8069,-2.808443 0.73385,-7.786504 -3.24255,-7.786504 -2.49633,0 -4.53962,2.044442 -4.53962,4.542138 0,2.497695 2.04329,4.542113 4.53962,4.542113 1.08085,0 2.52198,-0.576763 3.24255,-1.297747 z"
               style="fill:#ffffff;stroke-width:0.64869374;stroke:none;fill-opacity:1"
               sodipodi:nodetypes="csscssscsccccccccscccccccccccsccccccccccccccccccscscccccccssscscscscsccccccssc" />
            <path
               inkscape:connector-curvature="0"
               id="path176-7"
               d="m 110.17814,138.02305 c -4.44373,-3.30851 -8.8035,-7.16866 -12.316458,-11.63293 -2.34416,-2.97896 -5.886872,-10.26417 -6.673153,-13.23284 -0.491808,-1.85684 -2.581889,-7.60003 -2.351635,-8.9052 0.230891,-1.458 2.684835,5.20354 5.145764,7.57983 2.759911,2.66498 5.930844,6.45964 7.127142,8.3727 2.74966,4.39716 9.04778,10.56728 14.90884,13.81314 3.18843,1.76575 7.0839,3.38476 9.05207,3.92557 1.45047,0.39857 4.59839,1.20752 8.91054,1.37875 1.5907,0.0632 3.72328,0.25962 4.31336,0.14241 0.25175,-0.05 -16.4002,0.95435 -17.33899,0.83663 -2.48686,-0.31183 -7.56853,0.11103 -10.77748,-2.27806 z"
               style="fill:#ffffff;stroke-width:0.64851379;stroke:none;fill-opacity:1"
               sodipodi:nodetypes="ssscssssssss" />
            <path
               inkscape:connector-curvature="0"
               id="path170"
               d="m 196.07381,57.532628 c 0.34453,0.09951 1.12018,0.235965 2.01142,0.20719 2.21054,-0.07137 2.18788,-1.341283 -0.57391,-4.303436 -2.34359,-1.841731 -3.09053,-2.823476 -3.45512,-1.472377 -0.18628,0.749735 -1.60777,-2.090343 -2.52724,-3.318871 -2.3271,-4.430627 -2.10327,-6.630207 0.7445,-9.691228 3.85072,-4.139089 2.13488,-8.441097 -4.31138,-13.173095 -5.69679,-4.18183 -9.60586,-5.687354 -17.04432,-6.218281 -5.49082,-0.393087 -7.0982,-0.660468 -8.73706,-1.827449 -1.67997,-1.196248 -2.166,-1.272036 -4.12937,-0.820065 -1.17025,0.3231 -2.58748,0.211855 -3.11909,-0.07536 -1.73352,-0.936825 -5.45127,-2.346439 -8.10027,-3.07132 -1.42672,-0.390383 -3.32363,-0.921629 -4.21533,-1.180512 -9.53112,-2.51272 -21.20167,-3.0813933 -31.12867,-1.313777 -1.2484,0.2768 -3.70897,0.927242 -5.46796,1.445424 -1.75896,0.518182 -3.74691,0.942145 -4.41762,0.942145 -1.14215,0 -3.406406,0.922193 -12.163904,4.954188 -8.829364,4.065085 -18.375888,11.451843 -25.37947,19.637701 -2.742204,3.61755 -5.806924,7.261491 -7.714663,11.118939 -0.846258,1.80681 -1.790388,3.440697 -2.098047,3.630852 -0.307659,0.190203 0.366877,-1.507044 1.498955,-3.77152 C 66.690603,26.49603 88.101743,11.046953 111.8474,6.8506964 c 10.92317,-1.9303056 26.42868,-1.5742006 34.90258,1.9529707 2.73867,1.1399423 6.00642,2.2814669 10.45343,0.6789014 3.27105,-1.2492276 6.38512,-0.6806 8.38704,1.5314665 0.86037,0.950699 2.13079,1.213748 6.22107,1.288089 6.81044,0.12378 12.40757,1.926963 18.37935,5.921138 7.93386,5.306481 11.44052,10.279592 11.44052,16.224799 0,2.346268 0.38268,3.814756 1.29703,4.977155 1.66874,2.121479 1.66622,5.724365 -0.005,8.466996 l -1.29814,2.129152 1.3876,1.876838 c 1.12277,1.518637 1.39786,2.538873 1.14332,5.187898 -0.61028,6.050972 -4.42969,8.727806 -5.51454,7.786606 -1.11793,-2.925575 -1.48567,-4.144442 -2.56785,-7.340078 z m 2.94071,-12.051245 c 1.09041,-2.037432 0.77797,-3.233729 -0.95837,-3.66953 -3.1513,-0.790913 -5.05468,3.067252 -2.09925,4.255215 1.2135,0.377237 2.31365,0.804443 3.05762,-0.585685 z m -12.81719,-5.018144 c -3.37993,-4.313035 -6.5656,-8.113229 -11.72676,-9.868662 1.57402,-0.618758 3.79752,-0.278285 5.31235,0.02782 1.47552,0.298164 3.79062,1.78508 4.54489,2.920299 1.36144,2.04905 1.87387,3.0148 1.86938,5.498526 -0.002,1.017658 1.4e-4,1.422013 1.4e-4,1.422013 z"
               style="fill:#ffffff;stroke-width:0.64851379;stroke:none;fill-opacity:1"
               sodipodi:nodetypes="cscccscccccccccssccccsscccscsccccccccccccssscc" />
          </g>
        </g>
      </g>
    </g>
  </g>
</svg>
